<svg width="960" height="202" viewBox="0 0 960 202" fill="none" xmlns="http://www.w3.org/2000/svg">
<g id="bri" clip-path="url(#clip0_428_521)">
<g id="layer1">
<g id="g1470">
<g id="g1458">
<g id="g38">
<g id="g1188">
<g id="g140">
<path id="path142" d="M539.913 91.5158C541.039 90.3881 542.369 88.9354 543.904 87.1577C545.435 85.38 546.886 83.2812 548.257 80.8574C549.627 78.4335 550.798 75.7328 551.763 72.7432C552.733 69.7575 553.218 66.5672 553.218 63.1763C553.218 56.5589 552.088 50.383 549.832 44.6485C547.571 38.918 544.105 33.9098 539.428 29.628C534.751 25.3542 528.908 21.9994 521.89 19.5756C514.877 17.1558 506.689 15.9438 497.339 15.9438H497.082H470.199H463.201H435.652V46.8195V153.709V185.495H503.386C513.221 185.495 521.806 184.163 529.148 181.498C536.482 178.834 542.574 175.162 547.411 170.479C552.248 165.796 555.835 160.346 558.176 154.13C560.512 147.914 561.682 141.252 561.682 134.145C561.682 124.619 559.506 116.143 555.154 108.711C550.798 101.287 545.716 95.5528 539.913 91.5158ZM509.963 47.0121C512.243 47.8829 514.147 49.0146 515.634 50.4392C519.485 54.1391 521.413 58.5614 521.413 63.706C521.413 68.3731 520.608 72.2295 519.004 75.2834C517.397 78.3412 515.79 80.6728 514.187 82.278H467.101V45.0097H496.369C501.856 45.0097 506.372 45.6879 509.963 47.0121ZM505.078 111.621C513.602 111.621 519.918 113.832 524.03 118.246C527.898 122.592 529.845 127.721 529.845 133.656C529.845 139.772 527.637 144.992 523.221 149.334C518.8 153.676 511.538 155.851 501.419 155.851H497.639H467.101V111.621H505.078Z" fill="white"/>
</g>
<g id="g144">
<path id="path146" d="M676.519 112.467C681.597 108.996 685.833 104.959 689.22 100.356C692.606 95.7535 695.103 90.669 696.718 85.0991C698.329 79.5251 699.139 73.8347 699.139 68.0199C699.139 60.4314 697.884 53.4489 695.388 47.0683C692.883 40.6917 689.136 35.202 684.138 30.5992C679.136 25.9963 672.888 22.4047 665.39 19.8204C657.892 17.24 649.223 15.9438 639.388 15.9438H638.502H573.349H572.74V185.495H604.798V122.52H622.672L666.881 185.495H704.457L658.741 120.341C665.51 118.567 671.438 115.943 676.519 112.467ZM639.628 45.0097C641.644 45.0097 643.548 45.1421 645.36 45.3708C651.074 46.2336 655.743 48.2762 659.342 51.5227C664.24 55.949 666.688 61.3745 666.688 67.8032C666.688 71.0256 666.163 74.1598 665.121 77.2136C664.075 80.2715 662.432 82.9642 660.184 85.2917C657.932 87.6272 655.042 89.5133 651.511 90.962C647.977 92.4107 643.72 93.133 638.743 93.133H604.798V45.0097H639.628Z" fill="white"/>
</g>
<g id="g148">
<path id="path150" d="M715.778 15.9438V15.992C715.454 15.984 715.137 15.9438 714.813 15.9438H714.54V15.9559V78.1045V122.636V185.495H747.227V15.9438H715.778Z" fill="white"/>
</g>
</g>
</g>
<path id="path4" d="M245.338 201.911C241.39 201.451 238.323 200.516 234.661 198.658C225.14 193.828 218 185.497 215.307 176.076C213.991 171.478 214.064 175.903 214.114 103.347L214.372 34.4506C214.701 29.885 215.394 26.9098 217.229 22.193C220.535 13.6987 225.945 7.73896 233.928 3.79463C238.419 1.57623 242.71 0.460132 247.955 0.145459C249.769 0.037543 279.358 0.0197958 317.986 0.105524C391.917 0.26992 385.809 0.14546 390.433 1.5843C392.561 2.24596 396.494 4.11118 398.899 5.59804C407.34 10.8187 413.453 19.3129 415.276 28.3553C415.634 30.1316 415.652 33.6506 415.652 99.8594L415.279 171.876C414.084 179.486 410.546 186.114 404.365 192.324C399.525 197.188 395.057 199.866 389.126 201.46L386.97 202.04L316.94 202.068C278.423 202.085 246.201 202.012 245.338 201.911ZM274.562 181.171C277.582 180.142 281.315 177.616 284.365 174.537C286.761 172.119 288.641 169.496 289.948 166.748C291.47 163.549 291.842 162.006 291.968 158.374C292.152 153.084 291.387 148.675 289.655 145.027C287.574 140.644 284.84 137.416 272.347 124.586C258.877 110.754 255.001 106.619 252.086 102.978C251.211 101.885 250.974 101.44 251.068 101.076C251.518 99.3517 256.121 94.6164 267.86 83.8001C280.216 72.4158 284.106 68.344 288.359 62.3453C291.01 58.6067 292.908 54.2403 293.585 50.3249C294.001 47.9207 294.002 43.4031 293.593 40.9765C292.705 35.7677 289.953 30.568 286.326 27.2525C281.172 22.5429 276.116 20.3711 268.889 19.7641C265.789 19.5041 253.089 19.6628 249.947 20.0012C242.924 20.758 236.397 25.6958 234.738 31.5078C234.408 32.6657 234.376 36.2269 234.308 79.5701L234.422 148.361C234.625 172.849 234.524 171.281 236.11 173.762C237.194 175.453 239.479 177.878 241.076 179.028C242.672 180.178 244.202 180.894 246.208 181.432C247.674 181.824 248.417 181.843 260.316 181.797L272.878 181.748L274.562 181.171ZM381.867 181.489C381.074 180.004 375.306 173.957 361.352 159.984C345.441 144.05 304.071 101.389 304.001 100.841C303.813 99.4002 311.157 91.6351 320.498 83.3932C325.82 78.6978 333.496 71.2583 338.167 66.2687C347.453 56.3489 349.815 52.8685 350.653 47.8703C351.062 45.4361 351.021 39.8395 350.585 38.0741C350.1 36.1171 349.288 34.1178 348.259 32.3367C347.13 30.3869 342.96 26.1412 340.704 24.6463C337.523 22.5391 333.636 20.8711 330.026 20.0635C328.272 19.6714 315.854 19.4213 311.798 19.6966L309.271 19.8682L309.447 20.5484C309.55 20.9225 310.601 22.6951 311.796 24.488C312.991 26.281 314.343 28.5431 314.801 29.5152C317.226 34.6674 318.355 41.0883 318.134 48.4698C317.954 54.4585 317.094 57.9798 314.531 63.2142C310.968 70.4926 306.177 76.1277 295.587 85.4976C289.41 90.9626 284.447 95.937 282.14 98.9763L280.521 101.108L292.712 114.041L310.649 133.34C315.669 139.4 318.172 144.81 319.142 151.696C319.601 154.951 319.552 161.162 319.04 164.138C318.263 168.706 316.578 172.696 313.453 177.376C312.465 178.853 311.424 180.467 311.137 180.961L310.615 181.859H346.338L381.864 181.489L381.867 181.489ZM395.999 108.102L395.146 37.4091C393.416 25.9416 388.77 21.1316 378.326 19.9965C375.864 19.7289 362.998 19.6752 362.998 19.932C362.998 20.3184 364.431 22.3338 366.344 24.6388C368.693 27.468 369.779 29.0285 370.746 30.9626C372.899 35.2701 373.542 39.9746 373.073 47.9754C372.645 55.2766 371.79 58.4676 369.085 62.8706C365.253 69.1075 360.222 74.4712 346.663 86.7768C338.658 94.0413 333.327 99.6727 333.522 100.659C333.546 100.829 347.621 115.264 364.778 132.735L395.973 164.501L396.041 163.511C396.086 162.966 396.051 138.032 395.995 108.101L395.999 108.102Z" fill="white"/>
</g>
</g>
</g>
</g>
<defs>
<clipPath id="clip0_428_521">
<rect width="960" height="202" fill="white"/>
</clipPath>
</defs>
</svg>
