<svg width="960" height="202" viewBox="0 0 960 202" fill="none" xmlns="http://www.w3.org/2000/svg">
<g id="gopay" clip-path="url(#clip0_428_548)">
<g id="Layer_x0020_1">
<path id="Subtract" d="M104.692 0.0131836C162.493 0.013343 209.384 45.2983 209.384 101.034C209.384 156.885 162.493 202.17 104.692 202.17C46.8912 202.17 0 156.885 0 101.034C0.000145008 45.2982 46.8913 0.0131836 104.692 0.0131836ZM125.933 48.8979C106.317 45.5306 86.3536 45.5306 66.8545 48.8979C55.7122 51.4525 47.4717 60.3934 45.8467 71.3081C42.829 91.1639 42.829 111.368 45.8467 131.108C48.2841 142.719 57.8011 151.66 69.7559 153.634C94.0137 156.653 118.504 156.653 142.762 153.634C153.556 151.544 161.68 142.952 162.957 132.385C165.162 121.122 166.091 109.511 165.743 98.0151C164.931 85.1263 153.672 75.2568 140.324 75.8374H74.167C71.7296 75.8374 69.7559 73.9791 69.7559 71.6567C69.7559 69.3344 71.7296 67.3608 74.167 67.3608H141.137C140.789 58.6523 134.637 51.2204 125.933 48.8979ZM139.628 101.034C143.226 101.034 146.128 103.937 146.128 107.42C146.128 109.162 145.316 110.904 143.923 112.181V115.781C143.923 118.103 141.949 120.077 139.628 120.077C137.191 120.077 135.218 118.103 135.218 115.781V112.181C133.825 110.904 133.013 109.162 133.013 107.42C133.013 103.937 136.03 101.034 139.628 101.034Z" fill="white"/>
<path id="Vector" d="M507.559 89.7706C507.675 72.0049 492.935 57.4904 474.596 57.3743C456.258 57.2582 441.285 71.5405 441.053 89.1901C440.937 106.956 455.678 121.47 474.132 121.586C474.248 121.586 474.48 121.586 474.596 121.586C492.006 122.515 506.863 109.51 507.791 92.7897C507.907 91.7446 507.907 90.6996 507.907 89.7706H507.559ZM408.787 89.7706C408.787 55.9809 436.41 30.3193 474.596 30.3193C512.782 30.3193 540.406 56.2132 540.406 89.7706C540.406 123.212 513.13 149.222 474.596 149.222C436.178 149.222 408.787 123.328 408.787 89.7706Z" fill="white"/>
<path id="Vector_2" d="M356.441 95.9247C356.441 109.742 341.816 121.122 323.246 121.122C306.184 122.747 290.979 110.788 289.238 94.2991C289.006 92.6734 289.006 90.9317 289.122 89.3061C289.122 70.9598 303.05 58.3032 324.522 58.3032C342.048 58.3032 356.441 69.7986 356.441 82.9197V95.9247ZM357.833 30.2031V43.5564C347.155 34.2672 333.111 29.5064 318.835 30.3192C284.944 30.6676 257.784 57.3742 258.016 90.0028C258.364 122.747 286.104 148.99 319.88 148.641C333.808 149.338 347.387 144.229 357.369 134.823V146.203C357.369 161.53 343.557 172.909 325.451 172.909C311.523 173.838 297.943 169.194 287.729 160.021L266.489 179.76C282.39 194.855 303.978 202.983 326.263 202.171C363.405 202.171 388.939 178.135 388.939 145.971V30.2031H357.833Z" fill="white"/>
<path id="Vector_3" d="M559.557 33.687H590.779V43.673H591.243C601.457 34.6159 615.037 29.8552 628.849 30.5519C662.856 31.713 689.32 59.3486 688.043 92.2094C686.882 123.212 661.115 148.177 628.849 149.338C615.617 149.687 602.734 145.39 592.404 137.495V193.695H559.905L559.557 33.687ZM623.742 58.3036C606.332 58.3036 592.172 70.0313 592.172 82.6879V96.9701C592.172 110.556 606.216 121.703 623.974 121.703C642.08 122.632 657.633 109.162 658.562 91.6288C659.49 74.0953 645.446 59.2325 627.34 58.3036C626.179 58.1874 625.135 58.1874 623.974 58.3036H623.742Z" fill="white"/>
<path id="Vector_4" d="M750.603 78.8563C771.959 76.0696 778.343 73.1667 778.343 67.3609C778.343 59.9295 770.218 55.5171 757.683 55.5171C744.103 54.472 731.8 63.0646 728.55 75.8373L697.908 69.6832C702.203 46.8084 726.693 30.436 756.754 30.436C790.762 30.436 811.886 47.2728 811.886 74.56V146.087H782.637V133.547H782.289C772.307 144.346 757.799 150.151 742.942 149.106C717.176 149.106 699.301 135.521 699.301 115.433C699.301 95.2287 713.926 83.7332 750.603 78.8563ZM780.896 90.7001H780.548C777.646 94.7642 771.727 97.0865 755.594 99.8733C736.559 103.241 729.479 106.956 729.479 113.459C729.479 120.077 735.166 123.213 747.469 123.213C766.156 123.213 780.664 114.852 780.664 104.17L780.896 90.7001Z" fill="white"/>
<path id="Vector_5" d="M870.848 139.7L816.993 33.6865H852.858L888.142 107.188H888.722L923.542 33.6865H959.639L878.972 193.694H843.108L870.848 139.7Z" fill="white"/>
</g>
</g>
<defs>
<clipPath id="clip0_428_548">
<rect width="960" height="202" fill="white"/>
</clipPath>
</defs>
</svg>
