<svg width="960" height="202" viewBox="0 0 960 202" fill="none" xmlns="http://www.w3.org/2000/svg">
<g id="ovo">
<path id="Vector" fill-rule="evenodd" clip-rule="evenodd" d="M380.129 5.53425H459.418L459.764 37.3562H440.029L486.425 147.003L532.129 37.3562H512.047V5.53425H575.409V23.5205L498.889 202C480.539 202 468.42 195.428 461.842 181.247L399.172 37.3562H380.129V5.53425ZM271.063 0C326.116 0 371.127 44.9658 371.127 100.308C371.127 155.997 326.116 200.962 271.063 200.962C215.665 200.962 171 155.997 171 100.308C171 44.9658 215.665 0 271.063 0ZM270.717 32.8596C305.687 32.8596 333.733 63.2979 333.733 101C333.733 139.048 305.687 169.486 270.717 169.486C235.747 169.486 207.701 139.048 207.701 101C207.701 63.2979 235.747 32.8596 270.717 32.8596ZM688.283 0C743.335 0 788 44.9658 788 100.308C788 155.997 743.335 200.962 688.283 200.962C632.884 200.962 588.219 155.997 588.219 100.308C588.219 44.9658 632.884 0 688.283 0ZM687.937 32.8596C722.561 32.8596 750.952 63.2979 750.952 101C750.952 139.048 722.561 169.486 687.937 169.486C652.966 169.486 624.921 139.048 624.921 101C624.921 63.2979 652.966 32.8596 687.937 32.8596Z" fill="white"/>
</g>
</svg>
