<svg width="960" height="202" viewBox="0 0 960 202" fill="none" xmlns="http://www.w3.org/2000/svg">
<g id="dana" clip-path="url(#clip0_428_534)">
<g id="Layer_x0020_1">
<path id="Subtract" d="M224.391 0.334473C239.392 -1.08982 255.316 1.75953 267.719 6.70264C277.022 10.3891 291.605 18.6829 298.561 25.8882C304.092 31.6691 305.098 31.7531 310.461 38.8745C322.194 54.6257 329.569 71.9693 331.161 93.0825C335.519 150.641 292.61 197.475 240.482 201.665C182.487 206.272 137.148 161.616 133.293 108.833C131.785 87.2177 136.813 66.2721 147.456 48.5103C163.882 21.1972 190.952 3.51829 224.391 0.334473ZM286.995 67.6958C256.909 46.7502 224.391 82.6099 193.885 78.5884C182.572 77.0803 177.878 71.2992 174.778 71.5503C173.52 75.2367 174.275 115.871 174.275 123.412C174.275 131.539 172.682 134.136 185.421 138.493C219.279 150.054 252.718 110.844 286.324 130.198C287.833 131.119 289.761 132.963 290.18 130.031L290.264 77.6665C290.264 72.0531 290.767 70.2931 286.995 67.6958Z" fill="white"/>
<path id="Vector" fill-rule="evenodd" clip-rule="evenodd" d="M407.007 152.149C420.165 153.071 435.501 142.933 440.949 137.068C459.722 116.709 460.141 87.3013 441.284 66.0205C434.244 58.145 417.734 49.3478 407.175 50.6045H369.21V152.065L407.007 152.149ZM390.581 130.198C393.346 130.701 404.828 130.533 408.013 130.198C433.909 127.852 443.128 92.4121 421.338 77.4988C417.65 75.0691 413.628 73.0583 408.348 72.4718C405.498 72.2205 393.095 71.9691 390.581 72.4718V130.198Z" fill="white"/>
<path id="Vector_2" fill-rule="evenodd" clip-rule="evenodd" d="M739.553 152.4L761.176 152.317V130.449L804.085 130.533L804.169 152.317H825.791C825.791 140.168 825.791 128.187 825.791 116.123C825.791 105.231 826.713 91.658 824.031 81.8555C819.505 65.1827 803.666 50.3532 782.798 50.2694C761.678 50.1856 746.342 64.9314 741.481 81.3528C738.632 91.0716 739.553 105.063 739.553 115.704C739.553 127.936 739.47 140.168 739.553 152.4ZM761.176 108.498H804.169C804.252 99.1147 805.258 89.9824 801.068 82.8609C798.051 77.6663 791.681 72.3042 782.798 72.3042C773.663 72.2205 767.629 77.415 764.36 82.6933C760.086 89.731 761.092 99.366 761.176 108.498Z" fill="white"/>
<path id="Vector_3" fill-rule="evenodd" clip-rule="evenodd" d="M492.574 152.316H514.029C514.112 147.792 513.442 133.801 514.28 130.449L556.938 130.533L557.105 152.316L578.644 152.4C578.56 140.252 578.644 128.187 578.644 116.122C578.644 105.733 579.65 90.9876 576.884 81.7715C564.564 40.0477 507.156 39.7964 494.418 81.3526C491.484 90.82 492.49 105.231 492.49 115.703C492.49 127.852 492.239 140.252 492.574 152.316ZM514.112 108.498H557.105C557.189 99.2821 558.195 89.9822 554.005 82.8607C546.21 69.7068 526.6 67.7798 517.297 82.7769C513.023 89.5633 513.945 99.5334 514.112 108.498Z" fill="white"/>
<path id="Vector_4" fill-rule="evenodd" clip-rule="evenodd" d="M616.525 90.2337L616.273 105.315C616.273 118.049 615.603 141.76 616.273 152.065H637.393C637.896 144.86 636.638 93.3336 637.979 91.658C637.979 81.604 648.455 72.3042 659.015 72.3042C665.468 72.2204 670.245 74.9014 673.681 78.0014C676.363 80.5149 680.47 86.0445 680.386 91.7417C681.391 92.2444 680.637 146.033 680.889 152.065H702.092L701.924 90.485C702.427 85.7094 699.494 78.2527 697.65 74.4825C681.978 42.6451 637.141 42.2262 621.05 73.896C619.123 77.5825 616.106 85.2905 616.525 90.2337Z" fill="white"/>
<path id="Vector_5" fill-rule="evenodd" clip-rule="evenodd" d="M407.007 152.149L369.21 152.065V50.6043H407.175C406.504 49.5989 390.665 50.1854 388.486 50.1854C382.954 50.1854 374.238 49.6827 369.042 50.2692C368.623 51.861 368.372 149.803 369.042 152.4C372.562 152.819 396.95 152.484 404.576 152.484L406.755 152.316C406.755 152.316 406.923 152.233 407.007 152.149Z" fill="white"/>
<path id="Vector_6" fill-rule="evenodd" clip-rule="evenodd" d="M680.386 91.7416C680.637 100.036 679.967 149.468 680.721 152.4L702.259 152.484C702.846 150.138 702.427 111.598 702.427 105.733C702.427 102.968 703.181 91.993 701.924 90.4849L702.092 152.065H680.889C680.637 146.033 681.391 92.2443 680.386 91.7416Z" fill="white"/>
<path id="Vector_7" fill-rule="evenodd" clip-rule="evenodd" d="M637.979 91.6582C636.639 93.3338 637.896 144.86 637.393 152.065H616.273C615.603 141.76 616.273 118.05 616.273 105.315L616.525 90.2339C615.352 90.7366 615.854 117.715 615.854 121.066C615.854 126.009 615.268 149.636 616.106 152.401L637.644 152.484L637.979 91.6582Z" fill="white"/>
</g>
</g>
<defs>
<clipPath id="clip0_428_534">
<rect width="960" height="202" fill="white"/>
</clipPath>
</defs>
</svg>
