<svg width="960" height="202" viewBox="0 0 960 202" fill="none" xmlns="http://www.w3.org/2000/svg">
<g id="linkaja">
<g id="Layer_x0020_1">
<path id="Vector" d="M377.296 198.048C373.116 195.877 369.842 193.983 370 193.825C370.552 193.312 390.468 189.049 404.39 186.484C434.481 180.959 470.291 176.539 505.943 173.934C520.614 172.868 573.738 172.829 582.966 173.894L589 174.605L582.177 174.684C570.109 174.881 542.384 176.815 520.654 178.986C479.559 183.13 433.85 190.747 400.801 198.956C394.018 200.613 387.668 201.995 386.682 201.995C385.696 201.995 381.477 200.219 377.296 198.048ZM434.758 156.648C434.166 154.95 436.729 154.161 437.873 153.688C442.921 151.517 446.471 147.965 447.693 143.939C448.245 142.005 449.981 131.073 451.558 119.628C453.096 108.222 454.477 99.3817 454.634 98.8291C454.753 98.4739 455.068 97.0926 456.685 96.9347C460.866 96.8953 463.981 96.9742 468.28 96.9742C470.646 96.7374 470.173 99.3422 469.976 101C469.818 103.091 469.226 107.157 468.595 112.09C467.767 118.089 466.584 127.127 465.914 132.099C464.415 143.308 463.587 146.741 461.023 152.504C457.947 159.371 453.293 163.357 444.814 166.198C443.079 166.711 438.149 168.409 437.637 166.909C436.532 163.357 435.743 160.278 434.758 156.648ZM532.249 152.898C526.609 150.609 526.846 141.769 532.801 138.177C536.547 135.849 541.832 136.243 544.553 138.967C551.218 145.636 541.398 156.569 532.249 152.898ZM489.498 147.61C472.855 144.768 472.973 124.916 476.72 113.59C481.373 100.447 492.732 96.6585 502.078 96.3033C509.966 96.0665 520.89 97.5267 523.651 99.2238C524.4 99.6974 524.045 104.236 521.916 121.088C520.457 132.81 518.84 142.874 518.366 143.466C515.724 146.663 498.095 149.188 489.498 147.61ZM504.011 131.902C505.786 125.272 506.535 119.273 507.836 112.248C507.679 109.84 503.577 109.801 502.552 109.801C497.149 109.801 493.954 112.84 492.258 119.588C489.931 128.824 492.377 133.994 499.042 133.994C501.132 133.796 503.34 133.915 504.011 131.902ZM382.463 142.282C386.998 131.152 405.258 91.37 409.635 83.1215C410.464 81.0692 412.633 80.6351 414.131 80.5167C418.43 80.3193 422.137 80.3588 425.923 80.3983C429.828 80.4377 429.867 81.7796 430.38 84.6607C430.971 87.5417 438.544 132.849 440.279 143.742C440.476 145.557 440.949 146.11 438.583 146.11C435.349 146.11 427.501 146.544 424.859 146.347C423.991 146.228 423.439 145.676 423.32 145.044C423.044 143.86 422.808 141.887 422.611 139.795L422.137 134.388H412.357H402.615L400.486 139.598C399.697 141.413 398.869 143.268 398.277 144.452C397.843 145.597 397.173 146.11 396.226 146.307C393.821 146.268 385.381 146.584 382.186 146.307C380.609 145.597 382.029 143.268 382.463 142.282ZM420.402 119.273C420.126 116.352 418.272 101.276 417.799 99.0265C417.72 98.7896 417.641 98.8686 417.523 99.0265C416.379 100.763 410.148 116.076 409.083 119.628C408.965 120.102 409.28 120.299 409.714 120.259C411.331 120.141 417.799 120.023 419.732 119.944C420.323 119.904 420.363 119.707 420.402 119.273ZM532.998 126.614C533.274 124.64 533.826 119.312 534.221 114.734C534.654 110.156 535.325 103.013 535.759 98.8686C536.035 95.7113 536.311 92.6329 536.429 91.0148C536.666 89.594 538.401 89.3966 539.545 89.3966C543.37 89.4361 546.998 89.1993 550.43 89.5545C552.047 89.7124 552.717 90.0676 552.717 91.0148C551.179 98.987 545.618 126.416 545.184 128.153C544.829 129.613 544.672 130.047 542.424 130.166C539.702 130.126 537.415 130.244 534.615 130.244C533.037 130.244 532.604 129.771 532.998 126.614ZM455.896 85.8446C455.896 80.9903 459.012 77.2804 462.916 75.7412C466.269 74.5572 470.055 74.5572 472.066 76.8463C475.655 81.0297 473.289 87.147 469.148 90.3438C463.784 94.0537 455.975 91.883 455.896 85.8446ZM551.692 75.6228C550.508 73.018 546.762 64.809 543.37 57.4288C539.939 50.0091 537.336 43.4576 537.573 42.8656C537.77 42.3131 541.595 37.5771 546.013 32.3676L553.23 23.9217C553.703 23.3297 554.216 22.6193 554.886 22.6193C559.224 22.6588 563.72 22.8956 567.861 22.8561C570.977 22.8561 572.515 22.6588 570.228 24.9873C568.768 26.8028 565.889 30.118 562.577 33.7489C557.805 39.0374 553.9 43.4971 553.9 43.655C553.9 43.8128 557.45 51.7061 561.827 61.1386C565.298 68.5978 568.137 75.2282 569.084 77.9908C569.478 78.938 569.123 79.7668 568.256 79.9641C567.112 80.2404 565.022 80.3588 561.433 80.3588H556.069C554.728 80.4772 553.782 80.2404 553.269 79.1353L551.692 75.6228ZM390.981 70.0975C386.13 67.6901 383.843 64.6117 383.449 60.0336C383.172 57.2709 387.668 20.2513 389.68 8.45087C390.153 5.68821 390.39 5.53035 393.032 5.53035H398.238C400.998 5.53035 403.483 5.49088 405.061 5.56981C407.19 5.60928 406.796 6.95114 406.638 8.56927C406.244 12.2002 405.1 20.0145 403.68 30.0785C401.117 47.9568 400.446 54.2715 401.077 55.2581C401.787 56.3632 403.601 56.5605 415.669 56.7578L426.436 56.9157C429 56.7578 429.512 57.3893 429.276 59.7178C428.645 63.5066 428.29 66.5455 427.659 69.9791C427.225 72.1103 425.845 71.5578 423.715 71.6762L411.134 71.8735C394.964 72.0708 394.886 72.0708 390.981 70.0975ZM515.172 71.4788C515.014 71.1631 515.448 66.8218 516.158 61.849C516.868 56.8368 518.366 46.1414 519.471 38.0113C522.626 15.0023 523.651 8.09567 524.085 5.45141C524.558 2.33356 524.558 2.53089 527.595 2.53089H532.406C534.26 2.53089 535.719 2.49143 536.863 2.53089C541.162 2.64929 540.649 2.29409 539.545 8.96393C539.111 11.4898 537.77 22.6193 536.508 31.9729C533.313 55.5344 531.223 69.9791 530.829 71.0842C530.474 72.1498 515.685 72.505 515.172 71.4788ZM433.062 69.6634C435.073 52.8507 437.006 40.103 439.214 24.4743C439.372 22.5799 441.225 22.3825 443.355 22.3825C445.8 22.3825 448.324 22.3431 450.651 22.422C455.147 22.422 456.33 23.014 455.857 26.0529C453.885 40.7345 451.4 53.8768 448.798 68.8346C448.324 71.3604 447.733 71.2815 445.327 71.2815C442.487 71.2815 437.518 71.3604 434.955 71.321C433.456 71.0447 433.101 70.8868 433.062 69.6634ZM464.928 32.0124C466.15 25.5004 467.018 24.4743 468.832 23.2903C471.041 21.83 487.447 20.3303 493.087 21.0407C493.875 21.1591 494.625 21.3169 495.374 21.4748C511.938 25.4215 509.374 44.2075 508.27 52.8507C507.166 61.0992 506.022 68.6373 505.825 69.5844C505.391 71.2026 505.076 71.2815 497.543 71.2815C495.019 71.2815 493.718 71.2026 492.258 71.0447C489.931 70.8868 489.734 70.3738 489.971 68.6767C490.799 61.8096 491.943 55.8501 492.81 49.3776C493.954 40.6161 493.639 31.9334 482.754 33.7883C480.861 34.2619 480.348 34.4198 480.111 36.2747C478.731 44.9574 477.548 53.9557 476.286 62.441C476.01 64.4538 475.655 66.585 475.26 68.4794C475.142 68.953 475.103 69.3871 474.984 69.7029C474.906 70.058 474.629 70.4527 474.393 70.058C472.618 66.8613 464.376 67.4138 460.944 69.7423C459.209 70.9658 458.854 71.5972 459.564 67.9269C459.682 67.1375 459.801 66.3877 459.919 65.5983C461.654 54.3899 462.798 43.3787 464.928 32.0124ZM441.383 12.7527C439.53 6.43808 445.011 0.241837 451.164 0.0445042C459.485 -0.547493 461.773 10.9373 453.293 16.1074C448.324 18.3964 443.158 17.8834 441.383 12.7527Z" fill="white"/>
</g>
</g>
</svg>
