<svg width="19" height="19" viewBox="0 0 19 19" fill="none" xmlns="http://www.w3.org/2000/svg">
<g id="vuesax/bold/message-favorite">
<g id="vuesax/bold/message-favorite_2">
<g id="message-favorite">
<path id="Vector" d="M16.6016 0.791504H14.2741C13.2687 0.791504 12.667 1.39317 12.667 2.39859V4.72609C12.667 5.7315 13.2687 6.33317 14.2741 6.33317H16.6016C17.607 6.33317 18.2087 5.7315 18.2087 4.72609V2.39859C18.2087 1.39317 17.607 0.791504 16.6016 0.791504ZM17.1082 3.70484C16.8153 4.639 15.7941 5.14567 15.4378 5.14567C15.0816 5.14567 14.0682 4.65484 13.7674 3.70484C13.7199 3.56234 13.6962 3.404 13.6962 3.25359C13.6962 2.739 13.9574 2.20859 14.5037 2.03442C14.8282 1.9315 15.1766 1.98692 15.422 2.19275C15.6753 1.99484 16.0237 1.9315 16.3562 2.03442C17.0845 2.264 17.3141 3.07942 17.1082 3.70484Z" fill="#FEFEFE"/>
<path id="Vector_2" d="M14.2734 7.521C12.7297 7.521 11.4788 6.27016 11.4788 4.72641V2.37516C11.4788 1.93975 11.1226 1.5835 10.6872 1.5835H5.54134C3.35634 1.5835 1.58301 3.34891 1.58301 5.526V11.0439C1.58301 13.2289 3.35634 15.0022 5.54134 15.0022H6.72884C6.95051 15.0022 7.23551 15.1447 7.36217 15.3189L8.54967 16.8943C9.07217 17.591 9.92717 17.591 10.4497 16.8943L11.6372 15.3189C11.7876 15.121 12.0251 15.0022 12.2705 15.0022H13.4659C15.6509 15.0022 17.4163 13.2368 17.4163 11.0518V8.31266C17.4163 7.87725 17.0601 7.521 16.6247 7.521H14.2734ZM6.33301 9.50016C5.88967 9.50016 5.54134 9.14391 5.54134 8.7085C5.54134 8.27308 5.88967 7.91683 6.33301 7.91683C6.76842 7.91683 7.12467 8.27308 7.12467 8.7085C7.12467 9.14391 6.77634 9.50016 6.33301 9.50016ZM9.49967 9.50016C9.05634 9.50016 8.70801 9.14391 8.70801 8.7085C8.70801 8.27308 9.05634 7.91683 9.49967 7.91683C9.93509 7.91683 10.2913 8.27308 10.2913 8.7085C10.2913 9.14391 9.94301 9.50016 9.49967 9.50016Z" fill="#FEFEFE"/>
</g>
</g>
</g>
</svg>
