<svg width="21" height="20" viewBox="0 0 21 20" fill="none" xmlns="http://www.w3.org/2000/svg">
<g id="UI icon/cloud_download/filled">
<path id="Subtract" d="M14.5137 12.3774C14.6462 12.4627 14.8074 12.5001 14.958 12.4537C17.3642 11.7118 19.0974 9.62553 19.0974 7.16786C19.0974 4.08883 16.377 1.59277 13.0211 1.59277C10.513 1.59277 8.35991 2.98688 7.43202 4.97656C7.00555 4.84805 6.54993 4.77854 6.07661 4.77854C3.67954 4.77854 1.73633 6.56143 1.73633 8.76074C1.73633 10.8292 3.45516 12.5293 5.65384 12.7243C5.7948 12.7368 5.93055 12.679 6.03834 12.5873C6.39491 12.284 6.84004 12.0771 7.31536 11.9912C7.5871 11.9421 7.81272 11.7226 7.81272 11.4465V10.3536C7.81272 9.03404 8.97864 7.9643 10.4169 7.9643C11.8551 7.9643 13.0211 9.03404 13.0211 10.3536V11.4465C13.0211 11.7226 13.2466 11.942 13.5185 11.9903C13.8696 12.0526 14.2093 12.1817 14.5137 12.3774Z" fill="#FEFEFE"/>
<path id="Union" fill-rule="evenodd" clip-rule="evenodd" d="M8.4262 13.7726C8.0872 13.4615 7.53758 13.4615 7.19858 13.7726C6.85959 14.0836 6.85959 14.5879 7.19858 14.8989L9.80275 17.2882C9.97159 17.4431 10.1927 17.5209 10.414 17.5215C10.4148 17.5215 10.4157 17.5215 10.4166 17.5215C10.4174 17.5215 10.4183 17.5215 10.4192 17.5215C10.5359 17.5212 10.6472 17.4997 10.7488 17.4611C10.8512 17.4222 10.9471 17.3646 11.0304 17.2882L13.6345 14.8989C13.9735 14.5879 13.9735 14.0836 13.6345 13.7726C13.2955 13.4615 12.7459 13.4615 12.4069 13.7726L11.2846 14.8023V10.3535C11.2846 9.91365 10.896 9.55707 10.4166 9.55707C9.93714 9.55707 9.5485 9.91365 9.5485 10.3535V14.8023L8.4262 13.7726Z" fill="#FEFEFE"/>
</g>
</svg>
