<svg width="20" height="19" viewBox="0 0 20 19" fill="none" xmlns="http://www.w3.org/2000/svg">
<g id="icon/Home">
<g id="Home">
<path id="Home_2" d="M7.61199 16.4457V14.025C7.61199 13.4071 8.14315 12.9062 8.79837 12.9062H11.1935C11.5082 12.9062 11.8099 13.024 12.0324 13.2339C12.2549 13.4437 12.3799 13.7283 12.3799 14.025V16.4457C12.3779 16.7026 12.4847 16.9496 12.6766 17.132C12.8686 17.3143 13.1297 17.4168 13.4021 17.4168H15.0362C15.7994 17.4187 16.532 17.1341 17.0723 16.6258C17.6127 16.1175 17.9163 15.4274 17.9163 14.7076V7.81143C17.9163 7.23003 17.6431 6.67854 17.1702 6.30553L11.6114 2.11856C10.6444 1.38444 9.25893 1.40814 8.32083 2.17485L2.88885 6.30553C2.39362 6.66754 2.09763 7.22067 2.08301 7.81143V14.7006C2.08301 16.2007 3.37249 17.4168 4.96315 17.4168H6.55992C7.1257 17.4168 7.58551 16.9863 7.58961 16.4528L7.61199 16.4457Z" fill="#FEFEFE"/>
</g>
</g>
</svg>
